<?xml version="1.0" encoding="UTF-8" standalone="no"?>
<svg
   xmlns:dc="http://purl.org/dc/elements/1.1/"
   xmlns:cc="http://creativecommons.org/ns#"
   xmlns:rdf="http://www.w3.org/1999/02/22-rdf-syntax-ns#"
   xmlns:svg="http://www.w3.org/2000/svg"
   xmlns="http://www.w3.org/2000/svg"
   width="35"
   version="1.1"
   id="svg2"
   height="35">
  <metadata
     id="metadata20">
    <rdf:RDF>
      <cc:Work
         rdf:about="">
        <dc:format>image/svg+xml</dc:format>
        <dc:type
           rdf:resource="http://purl.org/dc/dcmitype/StillImage" />
        <dc:title></dc:title>
      </cc:Work>
    </rdf:RDF>
  </metadata>
  <defs
     id="defs4" />
  <g
     transform="matrix(0.06327283,0,0,0.06594935,-158.32411,-30.482993)"
     id="layer1">
    <rect
       y="552.36218"
       x="0"
       width="500"
       style="fill:#55acee;fill-opacity:1;stroke:none"
       ry="250"
       rx="250"
       id="rect2990-1"
       height="500" />
    <g
       transform="translate(-549.00515,80.294372)"
       id="layer1-9" />
    <g
       transform="translate(-575.71429,39.999999)"
       id="layer1-6" />
    <g
       transform="matrix(0.99928945,0,0,0.99928945,474.7002,-40.81928)"
       id="layer1-93" />
    <path
       style="fill:#ffffff;fill-opacity:1;stroke:none"
       id="rect2989"
       d="m 309.85,672.31218 c -35.47079,0.89879 -63.925,29.93138 -63.925,65.625 0,5.13827 0.55122,10.16156 1.675,14.975 -54.56567,-2.74126 -102.94287,-28.87749 -135.325,-68.6 -5.65147,9.69191 -8.9,20.98158 -8.9,33.025 0,22.77467 11.60809,42.85438 29.225,54.625 -10.75722,-0.34428 -20.89606,-3.30758 -29.75,-8.225 -0.005,0.27282 0,0.57069 0,0.85 0,31.80402 22.6379,58.3088 52.675,64.35 -5.50852,1.49406 -11.31075,2.3 -17.3,2.3 -4.23534,0 -8.34203,-0.40198 -12.35,-1.175 8.36022,26.08109 32.57506,45.07385 61.3,45.6 -22.46937,17.61043 -50.73534,28.1 -81.5,28.1 -5.29416,0 -10.53675,-0.28938 -15.675,-0.9 29.06272,18.63683 63.55282,29.5 100.625,29.5 120.76552,0 186.8,-100.04058 186.8,-186.8 0,-2.8452 -0.0517,-5.70577 -0.175,-8.525 12.82294,-9.2372 23.95454,-20.80776 32.75,-33.975 -11.7641,5.22922 -24.41586,8.77146 -37.7,10.35 13.56346,-8.1199 23.97061,-20.98166 28.875,-36.325 -12.68652,7.52877 -26.73993,13.00085 -41.7,15.95 -11.97197,-12.75798 -29.04137,-20.725 -47.925,-20.725 -0.56646,0 -1.13698,-0.0143 -1.7,0 z" />
  </g>
  <g
     transform="translate(1.937222,1.1898401)"
     id="g165">
    <g
       id="g132">
      <circle
         clip-rule="evenodd"
         cx="16"
         cy="16"
         fill="#007bb5"
         fill-rule="evenodd"
         r="16"
         id="circle122" />
      <g
         id="g130">
        <rect
           fill="#ffffff"
           height="14"
           width="4"
           x="7"
           y="11"
           id="rect124" />
        <path
           d="M 20.499,11 C 17.708,11 17.228,12.018 17,13 v -2 h -4 v 14 h 4 v -8 c 0,-1.297 0.703,-2 2,-2 1.266,0 2,0.688 2,2 v 8 h 4 v -7 c 0,-4 -0.521,-7 -4.501,-7 z"
           fill="#ffffff"
           id="path126" />
        <circle
           cx="9"
           cy="8"
           fill="#ffffff"
           r="2"
           id="circle128" />
      </g>
    </g>
    <g
       id="g134" />
    <g
       id="g136" />
    <g
       id="g138" />
    <g
       id="g140" />
    <g
       id="g142" />
    <g
       id="g144" />
  </g>
</svg>
